<svg id="Layer_1" data-name="Layer 1" xmlns="http://www.w3.org/2000/svg" viewBox="0 0 2000 986.37"><defs><style>.cls-1{fill:#bb254a;}.cls-2{fill:#331528;}</style></defs><path class="cls-1" d="M376.7,425.93V301.65a224.17,224.17,0,0,1,233,0V425.93a134.51,134.51,0,0,0-233,0Z"/><path class="cls-1" d="M493.18,717.36A222.74,222.74,0,0,1,376.7,684.72V560.44a134.51,134.51,0,0,0,233,0V684.72A222.75,222.75,0,0,1,493.18,717.36Z"/><rect class="cls-1" x="605.32" y="448.34" width="134.42" height="89.67" transform="translate(1165.7 -179.35) rotate(90)"/><rect class="cls-1" x="246.64" y="448.34" width="134.42" height="89.67" transform="translate(807.02 179.33) rotate(90)"/><path class="cls-2" d="M970.91,440.24,845,578.4H970.91v26.87H807V578.4L932.91,440.24H807V413.38H970.91Z"/><path class="cls-2" d="M1086,610.26a89.2,89.2,0,0,1-48.26-13.62,100.85,100.85,0,0,1-34.73-36.56q-12.94-22.92-13-50.76a103.44,103.44,0,0,1,28.11-71.67,96.17,96.17,0,0,1,30.61-21.78A89.65,89.65,0,0,1,1086,408a90.4,90.4,0,0,1,70.13,32,103,103,0,0,1,19.58,35.5,121.56,121.56,0,0,1,5.47,43.94H1018.5a76.74,76.74,0,0,0,11.61,32.63,69.09,69.09,0,0,0,23.78,22.73A64.71,64.71,0,0,0,1086,583.4a62.45,62.45,0,0,0,34.63-10A73.23,73.23,0,0,0,1145.53,546l27.25,6.34A100.5,100.5,0,0,1,1138.05,594,88.74,88.74,0,0,1,1086,610.26Zm-68.31-112.45h136.43a69.41,69.41,0,0,0-10.84-32.72,73,73,0,0,0-24.47-23.79,65.05,65.05,0,0,0-65.43-.19,71.07,71.07,0,0,0-24.19,23.6A77.7,77.7,0,0,0,1017.73,497.81Z"/><path class="cls-2" d="M1216,605.27V413.38h26.86v26.48a73.93,73.93,0,0,1,26.48-23.22,74.69,74.69,0,0,1,35.5-8.63,79.82,79.82,0,0,1,21.49,2.87l-10.92,26.68a53.34,53.34,0,0,0-15.75-2.5,54.9,54.9,0,0,0-28.49,7.67,58.27,58.27,0,0,0-20.64,20.54,54.77,54.77,0,0,0-7.67,28.59V605.27Z"/><path class="cls-2" d="M1422.23,610.26A89.2,89.2,0,0,1,1374,596.64a100.85,100.85,0,0,1-34.73-36.56q-12.95-22.92-13-50.76a103.44,103.44,0,0,1,28.11-71.67A96.1,96.1,0,0,1,1385,415.87a92.2,92.2,0,0,1,85.48,5.76,100.56,100.56,0,0,1,34.73,36.65q13,23,13,51a102,102,0,0,1-7.48,39.15,103.71,103.71,0,0,1-20.63,32.14,96.11,96.11,0,0,1-30.51,21.78A89.51,89.51,0,0,1,1422.23,610.26Zm0-26.86a62.76,62.76,0,0,0,35.21-10.27A73.87,73.87,0,0,0,1482.2,546a78.79,78.79,0,0,0-.1-73.78A73.64,73.64,0,0,0,1457.25,445a65.46,65.46,0,0,0-70.23.09,73.83,73.83,0,0,0-24.75,27.16,76.68,76.68,0,0,0-9.12,37,75.54,75.54,0,0,0,9.4,37.52,73,73,0,0,0,25.14,26.67A63.65,63.65,0,0,0,1422.23,583.4Z"/><path class="cls-2" d="M1560.39,605.27v-23.8q15.73-14.58,34.55-32t37.32-35.88q18.51-18.51,33.87-36.65a236.22,236.22,0,0,0,24.66-34.35q9.32-16.22,9.31-28.69a53.79,53.79,0,0,0-7.39-27.73,57.54,57.54,0,0,0-19.77-20.15,51.74,51.74,0,0,0-27.54-7.58,52.67,52.67,0,0,0-27.72,7.58,57.77,57.77,0,0,0-20.06,20.15,53.2,53.2,0,0,0-7.48,27.73h-26.86a79,79,0,0,1,11.22-41.64,84.9,84.9,0,0,1,29.84-29.65,79.09,79.09,0,0,1,41.06-11,78,78,0,0,1,41,11.13,84.49,84.49,0,0,1,29.56,29.75A79.76,79.76,0,0,1,1727,414q0,13.64-7.2,29.84a196.91,196.91,0,0,1-19.47,33.58q-12.3,17.37-27.64,35t-32.05,34.44q-16.68,16.8-32.42,31.56H1731v26.87Z"/></svg>