<svg id="Layer_1" data-name="Layer 1" xmlns="http://www.w3.org/2000/svg" viewBox="0 0 986.37 986.37"><defs><style>.cls-1{fill:#fff;}.cls-2{fill:#bb254a;}</style></defs><path class="cls-1" d="M322.44,665.11,251,743.5h71.43v15.25h-93V743.5l71.42-78.39H229.46V649.86h93Z"/><path class="cls-1" d="M387.77,761.58a50.65,50.65,0,0,1-27.39-7.73,57.86,57.86,0,0,1-27.05-49.54,58.61,58.61,0,0,1,15.94-40.67,54.58,54.58,0,0,1,17.37-12.36,50.8,50.8,0,0,1,21.13-4.46A51.32,51.32,0,0,1,427.56,665a58.39,58.39,0,0,1,11.1,20.14,69.13,69.13,0,0,1,3.12,24.94H349.44a43.51,43.51,0,0,0,6.59,18.5,39.12,39.12,0,0,0,13.5,12.91,36.75,36.75,0,0,0,18.24,4.84,35.51,35.51,0,0,0,19.65-5.66,41.55,41.55,0,0,0,14.1-15.57L437,728.7a57,57,0,0,1-19.7,23.68A50.35,50.35,0,0,1,387.77,761.58ZM349,697.77h77.41a39.59,39.59,0,0,0-6.15-18.56,41.46,41.46,0,0,0-13.88-13.5,36.94,36.94,0,0,0-37.13-.11A40.2,40.2,0,0,0,355.54,679,44.19,44.19,0,0,0,349,697.77Z"/><path class="cls-1" d="M461.48,758.75V649.86h15.24v15a41.66,41.66,0,0,1,15-13.17,42.27,42.27,0,0,1,20.14-4.9,45.32,45.32,0,0,1,12.19,1.63l-6.21,15.13a30.09,30.09,0,0,0-8.92-1.41,31.05,31.05,0,0,0-16.17,4.36,33,33,0,0,0-11.7,11.64,31,31,0,0,0-4.36,16.23v64.35Z"/><path class="cls-1" d="M578.52,761.58a50.65,50.65,0,0,1-27.39-7.73,57.86,57.86,0,0,1-27-49.54A58.56,58.56,0,0,1,540,663.64a54.58,54.58,0,0,1,17.37-12.36,52.3,52.3,0,0,1,48.5,3.27,57,57,0,0,1,19.71,20.79,60.51,60.51,0,0,1,3.1,51.18A58.88,58.88,0,0,1,617,744.76a54.59,54.59,0,0,1-17.31,12.35A50.7,50.7,0,0,1,578.52,761.58Zm0-15.25a35.65,35.65,0,0,0,20-5.82,42,42,0,0,0,14-15.41,44.72,44.72,0,0,0-.06-41.86,41.72,41.72,0,0,0-14.1-15.41,37.15,37.15,0,0,0-39.85,0,41.93,41.93,0,0,0-14,15.41,43.52,43.52,0,0,0-5.18,21,42.75,42.75,0,0,0,5.34,21.28,41.35,41.35,0,0,0,14.26,15.14A36.17,36.17,0,0,0,578.52,746.33Z"/><path class="cls-1" d="M656.91,758.75v-13.5q8.93-8.28,19.6-18.13t21.18-20.36q10.51-10.51,19.22-20.8a134.28,134.28,0,0,0,14-19.49q5.28-9.19,5.27-16.28A30.5,30.5,0,0,0,732,634.46,32.55,32.55,0,0,0,720.78,623a29.36,29.36,0,0,0-15.64-4.3,29.82,29.82,0,0,0-15.72,4.3A32.61,32.61,0,0,0,678,634.46a30.18,30.18,0,0,0-4.25,15.73H658.55a44.86,44.86,0,0,1,6.37-23.63,48.27,48.27,0,0,1,16.93-16.82,44.85,44.85,0,0,1,23.29-6.26,44.26,44.26,0,0,1,23.25,6.32,47.79,47.79,0,0,1,16.77,16.87,45.31,45.31,0,0,1,6.26,23.52q0,7.74-4.08,16.93a112,112,0,0,1-11.05,19.06q-7,9.86-15.68,19.87t-18.18,19.54Q693,735.12,684,743.5h69.68v15.25Z"/><path class="cls-2" d="M397.38,284.54V179.38a189.66,189.66,0,0,1,197.12,0V284.54a113.8,113.8,0,0,0-197.12,0Z"/><path class="cls-2" d="M495.94,531.13a188.39,188.39,0,0,1-98.56-27.62V398.35a113.8,113.8,0,0,0,197.12,0V503.51A188.39,188.39,0,0,1,495.94,531.13Z"/><rect class="cls-2" x="590.82" y="303.5" width="113.74" height="75.87" transform="translate(989.12 -306.25) rotate(90)"/><rect class="cls-2" x="287.32" y="303.5" width="113.74" height="75.87" transform="translate(685.63 -2.75) rotate(90)"/></svg>