<svg id="Layer_1" data-name="Layer 1" xmlns="http://www.w3.org/2000/svg" viewBox="0 0 1200 515.21"><defs><style>.cls-1{fill:#331528;}</style></defs><path class="cls-1" d="M355.32,214.15,252,327.55H355.32v22.06H220.8V327.55l103.33-113.4H220.8V192.1H355.32Z"/><path class="cls-1" d="M449.82,353.7a73.21,73.21,0,0,1-39.61-11.18,83.69,83.69,0,0,1-39.15-71.67A84.93,84.93,0,0,1,394.13,212a78.73,78.73,0,0,1,25.13-17.87,73.47,73.47,0,0,1,30.56-6.46A74.2,74.2,0,0,1,507.38,214a84.78,84.78,0,0,1,16.08,29.14,100,100,0,0,1,4.48,36.07H394.38A63.11,63.11,0,0,0,403.91,306a56.81,56.81,0,0,0,19.52,18.66,53.07,53.07,0,0,0,26.39,7,51.24,51.24,0,0,0,28.42-8.19,60,60,0,0,0,20.4-22.53l22.37,5.2a82.45,82.45,0,0,1-28.5,34.26A72.87,72.87,0,0,1,449.82,353.7Zm-56.07-92.3h112a56.86,56.86,0,0,0-8.9-26.85A59.89,59.89,0,0,0,476.75,215a53.36,53.36,0,0,0-53.71-.16,58.44,58.44,0,0,0-19.85,19.37A63.79,63.79,0,0,0,393.75,261.4Z"/><path class="cls-1" d="M556.45,349.61V192.1h22v21.73a60.62,60.62,0,0,1,21.73-19.05,61.28,61.28,0,0,1,29.14-7.09A65.75,65.75,0,0,1,647,190.05l-9,21.89a43.78,43.78,0,0,0-12.92-2,45,45,0,0,0-23.39,6.3,47.81,47.81,0,0,0-16.94,16.85,45,45,0,0,0-6.29,23.47v93.09Z"/><path class="cls-1" d="M725.77,353.7a73.27,73.27,0,0,1-39.62-11.18A83.71,83.71,0,0,1,647,270.85,84.93,84.93,0,0,1,670.08,212a78.73,78.73,0,0,1,25.13-17.87,75.65,75.65,0,0,1,70.17,4.72A82.6,82.6,0,0,1,793.88,229a87.53,87.53,0,0,1,4.5,74,85.1,85.1,0,0,1-16.93,26.39,79,79,0,0,1-25,17.87A73.37,73.37,0,0,1,725.77,353.7Zm0-22.05a51.49,51.49,0,0,0,28.9-8.43A60.52,60.52,0,0,0,775,300.93a64.7,64.7,0,0,0-.08-60.55,60.38,60.38,0,0,0-20.4-22.29,53.71,53.71,0,0,0-57.65.08,60.65,60.65,0,0,0-20.32,22.28,63,63,0,0,0-7.48,30.4,62,62,0,0,0,7.72,30.8,60,60,0,0,0,20.63,21.89A52.25,52.25,0,0,0,725.77,331.65Z"/><path class="cls-1" d="M839.17,349.61V330.07q12.92-12,28.35-26.22t30.63-29.45q15.21-15.21,27.81-30.09a193.79,193.79,0,0,0,20.24-28.19q7.63-13.31,7.64-23.55a44.14,44.14,0,0,0-6.07-22.76,47.14,47.14,0,0,0-16.22-16.54,42.53,42.53,0,0,0-22.61-6.22,43.27,43.27,0,0,0-22.75,6.22,47.31,47.31,0,0,0-16.46,16.54,43.64,43.64,0,0,0-6.15,22.76h-22a64.92,64.92,0,0,1,9.2-34.18,69.87,69.87,0,0,1,24.5-24.33,64.86,64.86,0,0,1,33.7-9.06,64.12,64.12,0,0,1,33.63,9.13,69.45,69.45,0,0,1,24.26,24.42,65.46,65.46,0,0,1,9.06,34q0,11.19-5.91,24.49a162.74,162.74,0,0,1-16,27.57q-10.1,14.25-22.69,28.74T905,301.65q-13.68,13.78-26.61,25.9H979.2v22.06Z"/></svg>